<?xml version="1.0" encoding="iso-8859-1"?>
<!-- Generator: Adobe Illustrator 19.0.0, SVG Export Plug-In . SVG Version: 6.00 Build 0)  -->
<svg version="1.1" id="Layer_1" xmlns="http://www.w3.org/2000/svg" xmlns:xlink="http://www.w3.org/1999/xlink" x="0px" y="0px"
	 viewBox="0 0 512.001 512.001" style="enable-background:new 0 0 512.001 512.001;" xml:space="preserve">
<g>
	<g>
		<g>
			<path d="M507.788,170.671c-4.266-7.55-11.217-12.983-19.567-15.298c-2.844-0.789-5.771-1.19-8.701-1.19
				c-14.518,0-27.371,9.775-31.255,23.77l-3.114,11.205c-0.47,0.171-0.938,0.348-1.399,0.539
				c-42.354,17.58-88.291,33.612-137.28,31.859c-49.18-1.752-96.511-19.139-133.275-48.958
				c-26.467-21.471-49.484-52.356-70.366-94.421c-0.94-1.893-1.896-3.939-2.908-6.103c-1.507-3.225-3.066-6.559-4.817-9.921
				L95.1,62.156c-1.962-3.762-3.733-6.765-5.568-9.444l-0.128-0.187C83.581,44.01,76.98,34.361,61.723,34.361
				c-4.115,0-8.601,0.711-13.716,2.175c-23.427,6.7-26.395,14.39-27.961,31.631c-0.363,3.988-0.565,8.43-0.6,13.202
				c0,0.002,0,0.002,0,0.004h-0.003c-0.14,20.747,2.913,42.831,5.369,57.14c-1.319,0.628-2.657,1.305-4.034,2.082
				c-21.224,11.973-22.32,20.141-19.829,37.277c0.58,3.98,1.418,8.346,2.49,12.975c0,0.002,0.001,0.004,0.002,0.006l-0.003,0.001
				c7.191,30.971,22.734,64.933,29.948,78.565c2.316,4.375,4.804,8.707,7.418,12.975c-5.227,2.128-10.275,6.046-15.429,11.916
				c-16.079,18.311-14.415,26.384-6.404,41.737c1.861,3.561,4.094,7.406,6.638,11.425v0.001l-0.003,0.002
				c17.025,26.865,42.912,53.784,54.222,64.264c26.922,24.947,60.137,43.889,96.051,54.78c20.412,6.199,41.645,9.847,63.12,10.844
				c4.097,0.186,8.187,0.278,12.271,0.278c18.265,0,36.362-1.848,53.951-5.518c63.372-13.219,120.333-50.115,156.282-101.231
				c16.097-22.936,27.749-47.377,34.632-72.643c3.74-13.734,5.943-27.52,6.545-40.974l0.067-1.329
				c0.526-10.16,0.911-22.4-0.456-29.983l8.512-30.632C513.123,186.977,512.052,178.218,507.788,170.671z M83.705,75.25
				c0.575,1.209,1.147,2.421,1.704,3.611c1.052,2.252,2.047,4.38,3.071,6.442c21.924,44.166,46.334,76.79,74.624,99.739
				c39.448,31.997,90.162,50.652,142.798,52.527c2.675,0.096,5.333,0.142,7.986,0.142c32.861,0,64.054-7.155,93.641-17.097
				c-27.998,17.786-58.39,32.912-92.322,39.765c-36.152,7.302-73.338,5.82-107.674-3.987c-48.574-21.59-81.525-59.212-100.63-87.023
				c-20.251-29.48-35.089-63.178-39.784-89.857L83.705,75.25z M429.534,225.326c-15.696,21.566-33.106,42.787-53.968,60.957
				c-30.555,19.694-62.296,31.377-94.345,34.724c-28.328,2.959-57.067-0.547-85.415-10.412
				c-44.845-15.607-78.71-43.362-99.223-63.897c-22.056-22.08-39.76-47.02-48.503-68.074l16.427-8.687
				c0.845,1.048,1.688,2.098,2.51,3.132c1.544,1.939,3.001,3.771,4.475,5.538c31.609,37.854,62.942,63.899,95.79,79.628
				c31.407,15.039,66.501,22.748,102.104,22.748c16.326,0,32.761-1.622,48.992-4.9C360.271,267.622,396.555,247.687,429.534,225.326
				z M36.003,69.619c0.52-5.732,0.941-9.347,2.394-11.213c1.677-2.155,6.131-4.209,14.016-6.464
				c3.611-1.034,6.743-1.557,9.308-1.557c6.322,0,8.842,3.013,13.914,10.394L35.887,70.989
				C35.924,70.527,35.963,70.069,36.003,69.619z M51.564,83.507c5.259,28.306,20.842,65.615,46.11,100.686
				c-4.619-5.02-9.244-10.302-13.882-15.856c-1.352-1.62-2.753-3.381-4.235-5.244c-2.186-2.747-4.446-5.588-6.892-8.413
				l-0.014,0.012c-0.033-0.038-0.06-0.081-0.094-0.121c-2.73-3.148-5.226-5.736-7.627-7.908l-0.172-0.156
				c-6.255-5.665-13.345-12.084-24.111-12.084c-0.09,0-0.184,0.011-0.273,0.012c-2.802-16.667-4.504-33.112-4.844-46.807
				L51.564,83.507z M16.805,175.565c-0.828-5.695-1.26-9.309-0.281-11.461c1.129-2.486,4.983-5.521,12.126-9.55
				c4.833-2.725,8.868-4.107,11.995-4.107c4.201,0,7.325,2.499,12.647,7.297l-36.28,19.185
				C16.94,176.469,16.871,176.014,16.805,175.565z M20.533,193.192l13.347-7.058c19.124,44.267,76.344,111.644,156.658,139.594
				c23.556,8.199,47.394,12.32,71.125,12.32c3.181,0,6.359-0.085,9.535-0.234c-22.159,4.512-44.784,5.654-66.931,3.21
				c-33.871-3.741-69.937-17.266-110.26-41.349c-1.826-1.09-3.745-2.298-5.778-3.578c-2.997-1.888-6.096-3.839-9.369-5.711
				l-0.003,0.005c-0.002-0.001-0.003-0.002-0.005-0.003c-3.682-2.102-6.797-3.672-9.807-4.942l-0.218-0.092
				c-3.026-1.275-6.111-2.563-9.323-3.501c-4.335-6.456-8.363-13.139-11.958-19.93C40.132,247.913,27.386,219.044,20.533,193.192z
				 M33.173,328.632c-2.663-5.103-4.264-8.372-4.053-10.728c0.246-2.72,2.88-6.857,8.293-13.019
				c6.607-7.525,10.698-8.394,13.201-8.394c3.159,0,6.859,1.475,11.112,3.263l-27.907,30.097
				C33.599,329.438,33.384,329.034,33.173,328.632z M486.744,255.117c-0.032,0.618-0.058,1.11-0.072,1.445
				c-0.551,12.272-2.568,24.881-5.998,37.477c-6.393,23.474-17.257,46.234-32.283,67.642
				c-33.631,47.821-87.007,82.359-146.444,94.757c-20.209,4.216-41.145,5.872-62.216,4.919c-20.14-0.935-40.057-4.356-59.201-10.171
				c-33.606-10.191-64.664-27.896-89.814-51.2c-11.627-10.774-33.19-33.808-48.201-55.951l33.823-36.476
				c1.127,0.7,2.254,1.403,3.356,2.097c2.115,1.332,4.114,2.59,6.101,3.775c42.334,25.285,80.512,39.519,116.715,43.518
				c8.206,0.906,16.471,1.353,24.754,1.353c42.681,0,85.836-11.898,123.76-34.421c36.853-21.889,64.264-52.456,87.715-84.034
				c3.088,6.942,8.614,12.786,15.979,16.205c1.616,0.751,3.309,1.373,5.012,1.842c2.845,0.79,5.773,1.192,8.704,1.192
				c6.739,0,13.107-2.129,18.4-5.79C486.806,253.891,486.777,254.496,486.744,255.117z M495.362,191.041l-11.109,39.988
				c-1.972,7.087-8.476,12.037-15.817,12.037c-1.482,0-2.965-0.204-4.432-0.612c-0.866-0.238-1.718-0.551-2.533-0.929
				c-7.31-3.393-11.044-11.506-8.88-19.29l11.114-39.992c1.967-7.087,8.471-12.036,15.816-12.036c1.482,0,2.964,0.204,4.417,0.607
				c4.226,1.172,7.742,3.92,9.9,7.74C495.997,182.375,496.537,186.809,495.362,191.041z"/>
			<path d="M196.639,414.811h-32.381c-4.425,0-8.012,3.586-8.012,8.012c0,4.426,3.587,8.012,8.012,8.012h32.381
				c4.425,0,8.012-3.586,8.012-8.012C204.651,418.397,201.064,414.811,196.639,414.811z"/>
			<circle cx="329.341" cy="382.744" r="15.136"/>
			<circle cx="180.449" cy="382.744" r="15.136"/>
			<path d="M345.531,414.811H313.15c-4.426,0-8.012,3.586-8.012,8.012c0,4.426,3.586,8.012,8.012,8.012h32.381
				c4.425,0,8.012-3.586,8.012-8.012C353.543,418.397,349.957,414.811,345.531,414.811z"/>
			<path d="M284.984,386.891c-4.426,0-8.012,3.586-8.012,8.012c0,3.879-3.154,7.033-7.033,7.033c-3.879,0-7.033-3.154-7.033-7.033
				c0-4.426-3.586-8.012-8.012-8.012c-4.425,0-8.012,3.586-8.012,8.012c0,3.879-3.156,7.033-7.033,7.033
				c-3.879,0-7.035-3.154-7.035-7.033c0-4.426-3.587-8.012-8.012-8.012c-4.425,0-8.012,3.586-8.012,8.012
				c0,12.713,10.345,23.057,23.059,23.057c5.75,0,11.002-2.13,15.045-5.624c4.042,3.493,9.295,5.624,15.045,5.624
				c12.713,0,23.056-10.344,23.056-23.057C292.996,390.478,289.41,386.891,284.984,386.891z"/>
		</g>
	</g>
</g>
<g>
</g>
<g>
</g>
<g>
</g>
<g>
</g>
<g>
</g>
<g>
</g>
<g>
</g>
<g>
</g>
<g>
</g>
<g>
</g>
<g>
</g>
<g>
</g>
<g>
</g>
<g>
</g>
<g>
</g>
</svg>
