<?xml version="1.0" encoding="iso-8859-1"?>
<!-- Generator: Adobe Illustrator 19.0.0, SVG Export Plug-In . SVG Version: 6.00 Build 0)  -->
<svg version="1.1" id="Capa_1" xmlns="http://www.w3.org/2000/svg" xmlns:xlink="http://www.w3.org/1999/xlink" x="0px" y="0px"
	 viewBox="0 0 509.287 509.287" style="enable-background:new 0 0 509.287 509.287;" xml:space="preserve">
<circle style="fill:#4B5AA7;" cx="254.644" cy="254.644" r="254.644"/>
<polygon style="fill:#FBD303;" points="456.392,213.616 473.346,205.478 495.046,228.535 440.456,289.907 420.111,314.321 
	440.456,333.987 330.596,392.985 146.479,348.567 68.832,254.644 73.579,170.554 112.233,174.962 151.226,221.075 235.995,271.258 
	295.332,276.683 376.371,259.391 "/>
<g>
	<polygon style="fill:#886C60;" points="402.14,321.78 420.111,314.321 433.335,318.728 440.456,333.987 419.433,341.785 	"/>
	<polygon style="fill:#886C60;" points="451.645,220.058 473.346,205.478 489.621,213.955 495.046,228.535 468.938,236.673 	"/>
	<polygon style="fill:#886C60;" points="55.947,125.796 57.642,117.658 56.625,106.469 76.291,96.975 79.682,90.193 90.872,93.584 
		104.773,95.619 111.555,125.796 88.159,142.75 72.223,142.75 	"/>
</g>
<g>
	<path style="fill:#71D456;" d="M92.906,125.796l-9.155-0.678l-6.442,10.511l-21.701-9.833c0,0,9.155,5.425,6.442,21.701
		c-2.034,11.868-4.069,22.04-10.511,33.568l28.143,6.103h15.936C87.142,173.944,92.906,125.796,92.906,125.796z"/>
	<path style="fill:#71D456;" d="M102.739,139.698c0,6.103-0.339,32.212,11.868,47.47l7.46-12.207
		c-1.356-0.678-0.678,0.339-0.678,0.339l0,0l0,0c-0.678-1.017-17.971-29.16-9.833-49.505l-9.155-11.189
		C102.739,114.607,102.4,133.595,102.739,139.698z"/>
</g>
<path style="fill:#058946;" d="M102.739,139.698c0-6.103,0-25.091,0-25.091l-9.833,11.189c0,0-5.764,48.148,2.713,61.372h18.988
	C102.4,171.91,102.739,145.801,102.739,139.698z"/>
<path style="fill:none;stroke:#EE4A68;stroke-miterlimit:10;" d="M121.388,175.301L121.388,175.301L121.388,175.301z"/>
<path style="fill:#F8B517;" d="M270.919,365.181c-77.648-7.121-157.669-57.303-184.456-152.244l-6.781-25.77l0,0l-28.143-6.103
	c-2.034,4.069-4.747,8.138-8.138,12.546c-13.224,17.293-24.074,73.24,19.327,129.187S173.266,433.674,278.718,431.64
	c105.452-2.034,162.077-79.682,162.077-97.653l-16.615-7.121l0,0C423.841,326.866,348.228,372.302,270.919,365.181z"/>
<path style="fill:#FBD303;" d="M185.812,259.391c65.78,51.878,159.025,33.907,207.174,11.189
	c48.148-23.057,83.073-53.234,83.073-53.234l-2.713-11.868c0,0-44.079,9.833-87.82,37.637
	c-44.079,27.804-156.313,33.568-213.616-22.379c-36.959-35.603-47.131-44.079-49.844-45.775l-7.46,11.868
	C125.118,202.426,146.14,228.196,185.812,259.391z"/>
<path style="fill:#F8B517;" d="M495.046,228.535l-18.988-11.189c0,0-34.924,30.177-83.073,53.234
	c-48.148,23.057-141.732,40.689-207.174-11.189c-39.332-31.195-60.355-56.964-70.866-72.562l-0.339,0.339h-18.31
	c9.494,14.919,21.023,37.976,21.023,37.976c43.74,91.211,118.675,117.997,202.426,103.417s100.366-13.902,100.366-13.902
	l13.224,4.069C433.335,318.728,481.823,292.62,495.046,228.535z"/>
<path style="fill:#FBD303;" d="M319.746,328.223c-83.751,14.919-158.686-12.207-202.426-103.078c0,0-11.528-23.057-21.023-37.637
	h-0.678H79.682l6.781,25.77c26.448,94.94,106.808,145.123,184.456,152.244s152.922-38.315,152.922-38.315l-3.391-12.546
	C420.111,314.321,403.497,313.642,319.746,328.223z"/>
<g>
</g>
<g>
</g>
<g>
</g>
<g>
</g>
<g>
</g>
<g>
</g>
<g>
</g>
<g>
</g>
<g>
</g>
<g>
</g>
<g>
</g>
<g>
</g>
<g>
</g>
<g>
</g>
<g>
</g>
</svg>
