<?xml version="1.0" encoding="iso-8859-1"?>
<!-- Generator: Adobe Illustrator 19.0.0, SVG Export Plug-In . SVG Version: 6.00 Build 0)  -->
<svg version="1.1" id="Capa_1" xmlns="http://www.w3.org/2000/svg" xmlns:xlink="http://www.w3.org/1999/xlink" x="0px" y="0px"
	 viewBox="0 0 512 512" style="enable-background:new 0 0 512 512;" xml:space="preserve">
<g>
	<g>
		<path d="M493.432,166.174c-3.646-7.93-6.993-13.809-9.158-17.344c-0.437-0.714-0.86-1.402-1.276-2.066
			c9.603-26.81,8.917-55.825-2.059-82.32c-0.09-0.218-0.189-0.434-0.294-0.645c-6.331-12.662-21.254-20.527-38.943-20.527
			c-17.69,0-32.613,7.865-38.944,20.527c-1.613,3.227-1.363,7.073,0.653,10.064c15.044,22.303,21.648,47.248,18.733,70.521
			c-0.08,0.642-0.559,6.287-0.702,7.715c-0.394,3.924-1.272,10.374-2.889,18.579c-5.395,9.925-12.285,21.151-20.796,32.467
			c-35.55,46.196-81.019,70.095-138.997,73.063c-3.454,0.175-6.909,0.263-10.27,0.263c-41.402,0-76.599-12.993-114.109-42.118
			c-37.728-29.399-56.539-64.882-62.876-78.772c-0.673-1.476-2.461-5.396-7.365-6.469c-2.699-0.591-5.519-0.041-7.796,1.522
			c-10.974,7.529-21.001,14.319-30.654,20.758c-2.062,1.375-3.539,3.468-4.146,5.872c-6.891,27.301-3.298,56.298,8.909,83.643
			c-0.295,0.262-0.58,0.537-0.845,0.835c-9.649,10.849-18.479,20.654-26.992,29.978c-1.671,1.831-2.604,4.217-2.615,6.696
			c-0.334,70.14,59.984,135.34,146.682,158.554c29.151,7.801,60.32,11.757,92.637,11.757c91.979,0,174.145-31.848,219.79-85.187
			c33.375-38.93,51.129-81.639,52.766-126.94C513.269,218.039,502.614,186.142,493.432,166.174z M441.701,63.272
			c9.605,0,17.951,3.686,20.915,9.202c8.672,21.184,9.392,44.294,2.159,65.798h-22.059c1.02-23.326-5.495-47.449-18.834-69.504
			C427.926,65.369,434.455,63.272,441.701,63.272z M122.101,250.139c41.267,32.043,80.246,46.332,126.388,46.332
			c3.696,0,7.491-0.097,11.285-0.289c56.33-2.883,101.982-23.612,138.901-63.197c-10.71,22.988-24.092,42.567-40.29,58.889
			c-23.716,10.688-50.035,18.112-74.435,20.68c-62.447,6.572-113.966-2.949-153.13-28.301
			c-35.508-22.996-52.53-58.357-58.271-86.861C83.871,213.802,100.027,232.938,122.101,250.139z M40.087,185.824
			c3.305-2.212,6.667-4.476,10.093-6.792c1.032,38.131,22.037,91.095,69.771,122.009c34.452,22.302,77.07,33.528,127.059,33.528
			c12.551,0,25.566-0.708,39.034-2.125c6.199-0.653,12.224-1.545,18.071-2.613c-9.881,4.645-20.37,8.65-31.494,12.014
			c-19.331,5.833-37.305,8.668-54.95,8.668c-26.723,0-52.842-6.304-84.675-20.433c-23.562-10.506-42.617-23.79-57.133-36.128
			C46.412,261.415,32.508,221.91,40.087,185.824z M443.919,370.528c-41.901,48.965-118.388,78.198-204.6,78.198
			c-30.572,0-60-3.727-87.465-11.077C79.694,418.327,27.87,367.83,20.827,311.979c0.707,1.481,1.45,2.969,2.26,4.469
			c9.11,16.77,23.941,33.53,42.92,48.48c9.84,7.74,20.6,14.83,31.981,21.06c12.04,6.58,24.77,12.21,37.85,16.72
			c31.68,10.95,63.84,16.5,95.571,16.5h0.04c28.42,0,56.82-4.47,84.42-13.27c5.569-1.78,11.12-3.74,16.48-5.82
			c2.49-0.97,4.45-2.85,5.53-5.3c1.07-2.44,1.13-5.16,0.16-7.65c-0.75-1.91-2.04-3.53-3.74-4.67c-2.69-1.81-6.17-2.2-9.21-1.02
			c-4.98,1.94-10.13,3.76-15.3,5.41c-25.641,8.17-52,12.31-78.361,12.32c-29.51,0-59.48-5.18-89.071-15.4
			c-30.67-10.57-59.04-27.84-79.869-48.631c-9.261-9.23-16.801-19-21.811-28.25c-3.81-7.012-6.201-13.906-6.913-19.824
			c1.021-1.137,2.04-2.272,3.077-3.431c14.983,16.971,44.443,45.244,88.027,64.679c34.062,15.118,63.551,22.159,92.804,22.159
			c19.632,0,39.495-3.114,60.734-9.522c66.762-20.187,112.88-61.169,140.99-125.286c0.015-0.032,0.028-0.065,0.042-0.098
			c10.208-23.971,15.723-45.963,18.553-60.19c1.437-7.228,2.316-13.087,2.836-17.145h3.711c1.928,7.002,5.742,23.666,5.732,45.857
			c0,13.25-1.37,26.46-4.06,39.24c-7.34,34.65-24.311,65.901-50.46,92.881c-1.891,1.95-3.88,3.91-5.94,5.82
			c-4.04,3.76-4.27,10.1-0.51,14.14c1.88,2.02,4.55,3.18,7.32,3.18c2.54,0,4.949-0.95,6.81-2.67c2.3-2.14,4.55-4.34,6.68-6.54
			c15.391-15.86,28.051-33.32,37.631-51.91c8.27-16.07,14.34-33.151,18.04-50.77c2.979-14.14,4.489-28.73,4.489-43.37
			c0-18.27-2.37-33.19-4.35-42.49c-0.254-1.192-0.506-2.309-0.754-3.367h1.467c5.74,9.086,18.914,34.153,23.613,67.051
			C497.651,277.178,482.067,326.03,443.919,370.528z"/>
	</g>
</g>
<g>
	<g>
		<path d="M373.198,368.149c-1.82-3.04-5.03-4.85-8.57-4.85c-1.811,0-3.58,0.49-5.13,1.42c-0.01,0-0.01,0.01-0.021,0.01
			c-2.29,1.37-3.899,3.56-4.55,6.15c-0.64,2.59-0.24,5.28,1.13,7.57c1.8,2.99,5.09,4.85,8.59,4.85c1.801,0,3.58-0.49,5.141-1.43
			c2.29-1.38,3.899-3.56,4.55-6.15C374.978,373.129,374.578,370.439,373.198,368.149z"/>
	</g>
</g>
<g>
</g>
<g>
</g>
<g>
</g>
<g>
</g>
<g>
</g>
<g>
</g>
<g>
</g>
<g>
</g>
<g>
</g>
<g>
</g>
<g>
</g>
<g>
</g>
<g>
</g>
<g>
</g>
<g>
</g>
</svg>
